<?xml version="1.0" encoding="UTF-8" standalone="no"?>
<svg
   xmlns:dc="http://purl.org/dc/elements/1.1/"
   xmlns:cc="http://creativecommons.org/ns#"
   xmlns:rdf="http://www.w3.org/1999/02/22-rdf-syntax-ns#"
   xmlns:svg="http://www.w3.org/2000/svg"
   xmlns="http://www.w3.org/2000/svg"
   xmlns:sodipodi="http://sodipodi.sourceforge.net/DTD/sodipodi-0.dtd"
   xmlns:inkscape="http://www.inkscape.org/namespaces/inkscape"
   role="img"
   viewBox="0 0 24 24"
   version="1.1"
   id="svg6"
   sodipodi:docname="qgis.svg"
   inkscape:version="1.0 (4035a4fb49, 2020-05-01)">
  <metadata
     id="metadata12">
    <rdf:RDF>
      <cc:Work
         rdf:about="">
        <dc:format>image/svg+xml</dc:format>
        <dc:type
           rdf:resource="http://purl.org/dc/dcmitype/StillImage" />
      </cc:Work>
    </rdf:RDF>
  </metadata>
  <defs
     id="defs10" />
  <sodipodi:namedview
     inkscape:document-rotation="0"
     pagecolor="#ffffff"
     bordercolor="#666666"
     borderopacity="1"
     objecttolerance="10"
     gridtolerance="10"
     guidetolerance="10"
     inkscape:pageopacity="0"
     inkscape:pageshadow="2"
     inkscape:window-width="1920"
     inkscape:window-height="1001"
     id="namedview8"
     showgrid="false"
     inkscape:zoom="30.625"
     inkscape:cx="12"
     inkscape:cy="12"
     inkscape:window-x="-9"
     inkscape:window-y="-9"
     inkscape:window-maximized="1"
     inkscape:current-layer="svg6" />
  <title
     id="title2">Qgis icon</title>
  <rect
     y="0.03265306"
     x="0.03265306"
     height="24"
     width="24"
     id="rect831"
     style="fill:#589632;stroke-width:2.26772;stroke-linecap:round;stroke-linejoin:round;fill-opacity:1" />
  <path
     d="M12.879 13.006v3.65l-3.004-3.048v-3.495h3.582l2.852 2.893h-3.43zm10.886 7.606V24h-3.654l-5.73-5.9v-3.55h3.354l6.03 6.062zm-10.828-1.448l3.372 3.371c-1.309.442-2.557.726-4.325.726C5.136 23.26 0 18.243 0 11.565 0 4.92 5.136 0 11.984 0 18.864 0 24 4.952 24 11.565c0 2.12-.523 4.076-1.457 5.759l-3.625-3.725a8.393 8.393 0 0 0 .24-2.005c0-4.291-3.148-7.527-7.1-7.527-3.954 0-7.248 3.236-7.248 7.527s3.33 7.6 7.247 7.6c.548 0 .661.017.88-.03z"
     id="path4"
     style="fill:#ffffff;fill-opacity:1" />
</svg>
